<svg width="24" height="26" viewBox="0 0 24 26" fill="none" xmlns="http://www.w3.org/2000/svg">
<path d="M24 13.3821C24 11.9266 23.7409 10.5311 23.2659 9.24C22.9412 13.044 20.9132 14.9979 18.7941 14.088C16.8092 13.2353 18.1468 9.91129 18.2456 8.32518C18.4122 5.63647 18.2372 2.55882 13.3532 0C15.3826 3.88235 13.5882 6.29435 11.7064 6.44118C9.61835 6.60424 7.70612 4.64682 8.412 1.47035C6.12635 3.15459 6.06 5.98941 6.76518 7.82329C7.50071 9.73482 6.73553 11.3231 4.94188 11.4995C2.93718 11.6972 1.82329 9.35294 2.85035 5.61741C1.07294 7.71035 0 10.4209 0 13.3821C0 20.0096 5.37247 25.3821 12 25.3821C18.6275 25.3821 24 20.0096 24 13.3821Z" fill="#F4900C"/>
<path d="M19.3368 16.9145C19.4413 19.0914 17.5291 19.9449 16.4999 19.5326C15.0133 18.9376 15.4121 17.9154 15.0295 15.7978C14.6469 13.6801 13.1766 12.2098 11.0004 11.5625C12.5886 16.0329 10.1201 17.6804 8.82624 17.9747C7.50483 18.2754 6.17706 17.974 6.0253 15.1463C4.48365 16.6809 3.5293 18.8041 3.5293 21.1505C3.5293 21.4103 3.54553 21.6658 3.56812 21.9199C5.73518 24.0616 8.71189 25.3858 11.9999 25.3858C15.2879 25.3858 18.2646 24.0616 20.4317 21.9199C20.4542 21.6658 20.4705 21.4103 20.4705 21.1505C20.4705 19.6067 20.0582 18.1604 19.3368 16.9145Z" fill="#FFCC4D"/>
</svg>
