<svg width="24" height="24" viewBox="0 0 24 24" fill="none" xmlns="http://www.w3.org/2000/svg">
<path d="M21.5414 16.2233C21.0774 15.549 21.3365 14.5742 21.221 13.4981C21.1021 11.7422 20.3477 10.0411 18.8843 8.68055L13.8999 4.04597C13.8999 4.04597 12.9178 3.132 12.0032 4.11473C11.0899 5.09679 12.0726 6.01076 12.0726 6.01076L14.1783 7.96954L16.0036 9.66661C16.0036 9.66661 15.5462 10.158 13.526 8.27931L6.70303 1.93297C6.70303 1.93297 5.71963 1.01967 4.80567 2.0024C3.89237 2.98446 4.87443 3.89843 4.87443 3.89843L11.3263 9.89961C11.3122 9.88626 10.8382 10.3616 10.8296 10.3536L3.92642 3.93314C3.92642 3.93314 2.94369 3.01918 2.02973 4.0019C1.11576 4.98463 2.09849 5.89793 2.09849 5.89793L9.00229 12.3197C9.0103 12.3277 8.56567 12.8298 8.57902 12.8425L2.6239 7.30259C2.6239 7.30259 1.64118 6.38863 0.727212 7.37135C-0.186752 8.35408 0.795976 9.26805 0.795976 9.26805L7.12763 15.1564C7.18571 15.2105 6.79382 15.7626 6.86659 15.83L2.30412 11.5867C2.30412 11.5867 1.32139 10.6727 0.407425 11.6561C-0.506539 12.6388 0.476189 13.5528 0.476189 13.5528L7.91809 20.4713C9.16052 21.6269 10.4363 22.2118 11.9745 22.4261C12.2876 22.4695 12.6882 22.4695 12.8524 22.4901C13.3712 22.5556 13.8265 22.7398 14.436 23.1137C15.2205 23.5944 16.3975 23.7947 17.0737 23.0716L19.3797 20.6048L21.5087 18.3269C22.1843 17.6045 22.0635 16.981 21.5414 16.2233Z" fill="#EF9645"/>
<path d="M1.28275 23.3553C1.11184 23.3553 0.940934 23.2898 0.810749 23.1596C0.549712 22.8986 0.549712 22.4767 0.810749 22.2156L3.18145 19.8463C3.44248 19.5852 3.86442 19.5852 4.12545 19.8463C4.38649 20.1073 4.38649 20.5292 4.12545 20.7903L1.75476 23.1603C1.62457 23.2905 1.45366 23.3553 1.28275 23.3553ZM5.78648 23.9708C5.71371 23.9708 5.63894 23.9588 5.5655 23.9334C5.21767 23.8119 5.03408 23.4314 5.15625 23.0829L5.8045 21.2316C5.92601 20.8837 6.30722 20.7008 6.65505 20.8217C7.00287 20.9438 7.18647 21.3244 7.06429 21.6722L6.41604 23.5235C6.3199 23.7985 6.0622 23.9708 5.78648 23.9708ZM0.66788 18.8522C0.392822 18.8522 0.135123 18.6806 0.0383193 18.4069C-0.0845217 18.0591 0.097737 17.6779 0.445564 17.555L2.11126 16.9669C2.46042 16.8467 2.8403 17.0276 2.96314 17.3741C3.08598 17.7219 2.90372 18.1031 2.55589 18.226L0.890195 18.8141C0.81609 18.8402 0.741317 18.8522 0.66788 18.8522ZM20.3358 4.32023C20.1649 4.32023 19.994 4.25481 19.8638 4.12462C19.6028 3.86359 19.6028 3.44099 19.8638 3.17995L22.2352 0.809919C22.4962 0.549549 22.9181 0.549549 23.1792 0.809919C23.4402 1.07029 23.4402 1.49356 23.1792 1.75459L20.8078 4.12462C20.6776 4.25548 20.5067 4.32023 20.3358 4.32023ZM17.5558 3.18729C17.4831 3.18729 17.4083 3.17461 17.3355 3.14924C16.9877 3.02773 16.8041 2.64719 16.9256 2.2987L17.5732 0.447404C17.6954 0.0995771 18.0753 -0.0840168 18.4237 0.037489C18.7716 0.158995 18.9552 0.539535 18.8337 0.88803L18.1861 2.73932C18.0899 3.01505 17.8316 3.18729 17.5558 3.18729ZM21.657 7.0421C21.3819 7.0421 21.1242 6.87052 21.0274 6.5968C20.9046 6.24897 21.0875 5.86776 21.4347 5.74492L23.0997 5.15676C23.4482 5.03325 23.8288 5.21684 23.9516 5.564C24.0744 5.91183 23.8915 6.29303 23.5443 6.41588L21.8793 7.00404C21.8052 7.03008 21.7304 7.0421 21.657 7.0421Z" fill="#FA743E"/>
<path d="M23.6027 15.8724C23.1615 15.1834 23.4532 14.2174 23.3744 13.1378C23.3143 11.3793 22.618 9.65357 21.2013 8.24423L16.3758 3.44475C16.3758 3.44475 15.4251 2.49874 14.4778 3.45009C13.5318 4.40078 14.4831 5.34745 14.4831 5.34745L16.522 7.37633L18.2885 9.13349C18.2885 9.13349 17.8145 9.60884 15.8591 7.66341C13.9023 5.71731 9.25371 1.09075 9.25371 1.09075C9.25371 1.09075 8.30236 0.144736 7.35568 1.09609C6.40901 2.04677 7.36036 2.99278 7.36036 2.99278L13.6066 9.20827C13.5932 9.19491 13.1032 9.65357 13.0945 9.64489L6.41168 2.99545C6.41168 2.99545 5.46033 2.04877 4.51365 3.00012C3.56764 3.95147 4.51832 4.89748 4.51832 4.89748L11.2018 11.5483C11.2098 11.5563 10.7478 12.043 10.7612 12.0563L4.99634 6.3195C4.99634 6.3195 4.04499 5.37349 3.09831 6.32484C2.15163 7.27619 3.10298 8.22287 3.10298 8.22287L9.23235 14.3215C9.28843 14.3769 8.87851 14.9164 8.94861 14.9865L4.53168 10.5916C4.53168 10.5916 3.58033 9.64555 2.63365 10.5969C1.68697 11.5483 2.63832 12.4949 2.63832 12.4949L9.84188 19.6598C11.0449 20.8568 12.3 21.4837 13.8302 21.7501C14.142 21.8041 14.5426 21.8175 14.7055 21.8435C15.2215 21.9263 15.6702 22.1259 16.2677 22.5205C17.0354 23.0272 18.2051 23.2669 18.9054 22.5672L21.2935 20.1798L23.4979 17.9754C24.1983 17.2744 24.0988 16.6468 23.6027 15.8724V15.8724Z" fill="#FFDB5E"/>
</svg>
