<svg width="24" height="24" viewBox="0 0 24 24" fill="none" xmlns="http://www.w3.org/2000/svg">
<path d="M23.999 12C23.999 18.6273 18.6264 24 11.999 24C5.37236 24 -0.000976562 18.6273 -0.000976562 12C-0.000976562 5.37333 5.37236 0 11.999 0C18.6264 0 23.999 5.37333 23.999 12Z" fill="#FFCC4D"/>
<path d="M18.9703 11.8675C18.9303 11.7775 17.971 9.66946 15.999 9.66946C14.0276 9.66946 13.0676 11.7775 13.0276 11.8675C12.9663 12.0055 13.0063 12.1668 13.1243 12.2615C13.241 12.3561 13.4083 12.3595 13.531 12.2708C13.539 12.2648 14.3723 11.6695 15.999 11.6695C17.6163 11.6695 18.4483 12.2568 18.467 12.2701C18.5256 12.3141 18.5963 12.3361 18.6656 12.3361C18.739 12.3361 18.813 12.3115 18.8736 12.2635C18.9916 12.1688 19.0323 12.0061 18.9703 11.8675ZM10.9703 11.8675C10.9303 11.7775 9.97096 9.66946 7.99896 9.66946C6.02763 9.66946 5.06763 11.7775 5.02763 11.8675C4.96629 12.0055 5.00629 12.1668 5.12363 12.2615C5.24096 12.3561 5.40829 12.3595 5.53029 12.2708C5.53896 12.2648 6.37163 11.6695 7.99896 11.6695C9.61629 11.6695 10.4483 12.2568 10.467 12.2701C10.5256 12.3141 10.5963 12.3361 10.6656 12.3361C10.739 12.3361 10.813 12.3115 10.8736 12.2635C10.9923 12.1688 11.0316 12.0061 10.9703 11.8675ZM20.6656 10.6695C20.4016 10.6695 20.151 10.5108 20.0463 10.2501C18.861 7.28679 15.8976 6.66279 15.8676 6.65612C15.507 6.58412 15.2723 6.23279 15.345 5.87146C15.417 5.51012 15.7683 5.27746 16.1296 5.34879C16.2803 5.37879 19.8336 6.12746 21.2843 9.75412C21.421 10.0961 21.2543 10.4841 20.9123 10.6208C20.8323 10.6541 20.7483 10.6695 20.6656 10.6695ZM3.33229 10.6695C3.24963 10.6695 3.16629 10.6541 3.08496 10.6215C2.74296 10.4848 2.57696 10.0968 2.71363 9.75479C4.16429 6.12812 7.71763 5.37946 7.86829 5.34946C8.23029 5.27879 8.58029 5.51146 8.65296 5.87212C8.72496 6.23212 8.49163 6.58279 8.13229 6.65612C8.00896 6.68146 5.12829 7.30946 3.95163 10.2501C3.84696 10.5108 3.59629 10.6695 3.33229 10.6695ZM11.999 14.6695C9.58363 14.6695 7.98096 14.3881 5.99896 14.0028C5.54629 13.9155 4.66563 14.0028 4.66563 15.3361C4.66563 18.0028 7.72896 21.3361 11.999 21.3361C16.2683 21.3361 19.3323 18.0028 19.3323 15.3361C19.3323 14.0028 18.4516 13.9148 17.999 14.0028C16.017 14.3881 14.4143 14.6695 11.999 14.6695Z" fill="#664500"/>
<path d="M5.99902 15.3359C5.99902 15.3359 7.99902 16.0026 11.999 16.0026C15.999 16.0026 17.999 15.3359 17.999 15.3359C17.999 15.3359 16.6657 18.0026 11.999 18.0026C7.33236 18.0026 5.99902 15.3359 5.99902 15.3359Z" fill="white"/>
<path d="M7.23093 18.8181C6.77759 20.6028 4.96426 21.6815 3.17959 21.2281C1.39559 20.7755 0.31626 18.9621 0.768927 17.1775C1.22159 15.3928 4.99359 11.3721 5.64026 11.5361C6.28693 11.7008 7.68359 17.0341 7.23093 18.8181ZM16.7549 18.8181C17.2083 20.6028 19.0216 21.6815 20.8063 21.2281C22.5909 20.7755 23.6703 18.9621 23.2169 17.1775C22.7636 15.3928 18.9916 11.3721 18.3449 11.5361C17.6996 11.7008 16.3023 17.0341 16.7549 18.8181Z" fill="#5DADEC"/>
</svg>
