<svg width="298" height="240" viewBox="0 0 298 240" fill="none" xmlns="http://www.w3.org/2000/svg">
<circle cx="55" cy="30" r="30" fill="#E7E9ED"/>
<rect x="109" y="6" width="100" height="16" fill="#E7E9ED"/>
<rect x="109" y="30" width="164" height="8" fill="#E7E9ED"/>
<rect x="109" y="46" width="36" height="8" fill="#E7E9ED"/>
<g opacity="0.4">
<circle cx="55" cy="108" r="30" fill="#E7E9ED"/>
<rect x="109" y="84" width="100" height="16" fill="#E7E9ED"/>
<rect x="109" y="108" width="164" height="8" fill="#E7E9ED"/>
<rect x="109" y="124" width="36" height="8" fill="#E7E9ED"/>
</g>
<path d="M97.07 173.872H104.418V172.002H97.07V167.338H104.88V165.424H94.892V181H105.21V179.064H97.07V173.872ZM110.019 172.288H109.953C109.953 171.848 109.909 171.1 109.865 170.572H107.907C107.973 171.254 107.995 172.266 107.995 172.816V181H110.063V175.456C110.063 173.388 111.207 172.024 112.725 172.024C114.375 172.024 114.925 173.168 114.925 174.796V181H116.993V175.368C116.993 173.74 117.741 172.024 119.633 172.024C121.437 172.024 121.943 173.52 121.943 175.214V181H124.011V174.532C124.011 172.2 122.801 170.286 120.117 170.286C118.643 170.286 117.279 171.034 116.575 172.376C115.937 170.902 114.727 170.286 113.341 170.286C111.757 170.286 110.547 171.188 110.019 172.288ZM129.571 179.438H129.637C130.407 180.604 131.837 181.286 133.311 181.286C136.523 181.286 138.569 178.822 138.569 175.764C138.569 172.684 136.457 170.286 133.355 170.286C131.639 170.286 130.275 171.1 129.593 172.2H129.527V170.572H127.503V186.28H129.571V179.438ZM136.435 175.764C136.435 177.722 135.225 179.548 132.959 179.548C130.847 179.548 129.439 177.788 129.439 175.786C129.439 173.784 130.847 172.002 132.959 172.002C135.225 172.002 136.435 173.806 136.435 175.764ZM146.55 170.572H143.778V167.58H141.732V170.572H139.73V172.266H141.732V177.92C141.732 180.076 142.81 181.176 144.768 181.176C145.406 181.176 146.044 181.066 146.528 180.89L146.462 179.196C146.11 179.372 145.626 179.46 145.252 179.46C144.218 179.46 143.778 178.954 143.778 177.7V172.266H146.55V170.572ZM149.412 170.572H147.102L151.568 181L150.908 182.738C150.468 183.86 150.05 184.476 148.972 184.476C148.642 184.476 148.268 184.41 147.938 184.3L147.74 186.126C148.202 186.236 148.664 186.28 149.104 186.28C151.15 186.28 152.03 185.202 152.712 183.464L157.772 170.572H155.572L152.69 178.756H152.646L149.412 170.572ZM167.56 165.424H165.382V181H174.512V179.064H167.56V165.424ZM178.599 170.572H176.531V181H178.599V170.572ZM178.951 166.81C178.951 166.04 178.313 165.468 177.565 165.468C176.817 165.468 176.201 166.062 176.201 166.81C176.201 167.536 176.817 168.13 177.565 168.13C178.313 168.13 178.951 167.558 178.951 166.81ZM189.264 172.002C188.516 170.88 186.954 170.286 185.48 170.286C183.5 170.286 181.542 171.232 181.542 173.476C181.542 175.434 183.192 176.028 184.578 176.358C186.36 176.776 187.306 177.128 187.306 178.096C187.306 179.24 186.272 179.614 185.238 179.614C184.072 179.614 183.016 178.976 182.466 178.162L180.992 179.416C181.982 180.67 183.61 181.286 185.194 181.286C187.306 181.286 189.352 180.384 189.352 177.92C189.352 176.094 187.834 175.28 185.854 174.84C184.27 174.488 183.478 174.158 183.478 173.278C183.478 172.288 184.468 171.914 185.414 171.914C186.47 171.914 187.372 172.464 187.834 173.212L189.264 172.002ZM197.081 170.572H194.309V167.58H192.263V170.572H190.261V172.266H192.263V177.92C192.263 180.076 193.341 181.176 195.299 181.176C195.937 181.176 196.575 181.066 197.059 180.89L196.993 179.196C196.641 179.372 196.157 179.46 195.783 179.46C194.749 179.46 194.309 178.954 194.309 177.7V172.266H197.081V170.572ZM202.188 165.424H200.01V176.446H202.188V165.424ZM202.584 179.68C202.584 178.888 201.946 178.25 201.11 178.25C200.274 178.25 199.636 178.91 199.636 179.702C199.636 180.472 200.296 181.132 201.11 181.132C201.946 181.132 202.584 180.45 202.584 179.68Z" fill="#E72D38"/>
<path d="M13.7978 205.336C13.7978 201.896 11.2698 199.384 7.89375 199.384C4.51775 199.384 1.98975 201.896 1.98975 205.336C1.98975 208.776 4.51775 211.288 7.89375 211.288C11.2698 211.288 13.7978 208.776 13.7978 205.336ZM12.5818 205.336C12.5818 207.976 10.8058 210.264 7.89375 210.264C4.98175 210.264 3.20575 207.976 3.20575 205.336C3.20575 202.696 4.98175 200.392 7.89375 200.392C10.8058 200.392 12.5818 202.696 12.5818 205.336ZM16.0635 203.512C16.1115 204.024 16.1275 204.76 16.1275 205.16V211H17.2155V207.16C17.2155 205.16 18.3355 204.232 19.4875 204.232C21.0555 204.232 21.5195 205.288 21.5195 206.856V211H22.6075V206.408C22.6075 204.552 21.6635 203.32 19.7595 203.32C18.7035 203.32 17.6155 203.928 17.1995 204.792H17.1675C17.1675 204.472 17.1355 203.912 17.1035 203.512H16.0635ZM31.6644 204.616C31.0244 203.752 29.8884 203.32 28.8804 203.32C26.4644 203.32 24.8804 205 24.8804 207.256C24.8804 209.512 26.4644 211.192 28.8804 211.192C30.1764 211.192 31.0884 210.68 31.7284 209.896L30.9124 209.288C30.4804 209.864 29.8244 210.264 28.8804 210.264C27.1364 210.264 26.0324 208.952 26.0324 207.256C26.0324 205.544 27.1524 204.232 28.8964 204.232C29.7124 204.232 30.4644 204.648 30.8164 205.224L31.6644 204.616ZM34.0324 206.68C34.1284 205.4 35.2004 204.232 36.6564 204.232C38.2084 204.232 39.0724 205.272 39.1364 206.68H34.0324ZM40.2404 207.032C40.2404 204.984 39.0084 203.32 36.6564 203.32C34.5284 203.32 32.8804 205 32.8804 207.256C32.8804 209.512 34.5284 211.192 36.7524 211.192C37.9844 211.192 39.0884 210.728 39.9684 209.608L39.1524 208.968C38.7364 209.64 37.8724 210.264 36.7524 210.264C35.2164 210.264 34.0484 209.048 34.0164 207.544H40.2244C40.2404 207.352 40.2404 207.176 40.2404 207.032ZM46.6126 203.512H45.3966L48.5966 210.984L47.9886 212.552C47.6686 213.4 47.2846 213.88 46.5486 213.88C46.2606 213.88 45.9886 213.832 45.7486 213.752L45.6366 214.744C45.9566 214.808 46.2926 214.84 46.6126 214.84C47.9086 214.84 48.5166 214.088 48.9646 212.936L52.6926 203.512H51.5086L49.1886 209.832H49.1566L46.6126 203.512ZM61.8331 207.256C61.8331 205 60.1691 203.32 57.8331 203.32C55.5131 203.32 53.8491 205 53.8491 207.256C53.8491 209.512 55.5131 211.192 57.8331 211.192C60.1691 211.192 61.8331 209.512 61.8331 207.256ZM60.6811 207.256C60.6811 208.936 59.5771 210.264 57.8331 210.264C56.1051 210.264 55.0011 208.936 55.0011 207.256C55.0011 205.576 56.1051 204.232 57.8331 204.232C59.5771 204.232 60.6811 205.576 60.6811 207.256ZM70.6544 211C70.6064 210.488 70.5904 209.752 70.5904 209.352V203.512H69.5024V207.352C69.5024 209.352 68.3824 210.28 67.2304 210.28C65.6624 210.28 65.1984 209.224 65.1984 207.656V203.512H64.1104V208.104C64.1104 209.96 65.0544 211.192 66.9584 211.192C68.0144 211.192 69.1024 210.584 69.5184 209.72H69.5504C69.5504 210.04 69.5824 210.6 69.6144 211H70.6544ZM77.4713 205.16V211H78.5593V207.16C78.5593 205.16 79.5993 204.328 80.7513 204.328C81.0393 204.328 81.3913 204.376 81.5193 204.424L81.6633 203.4C81.4393 203.336 81.2153 203.32 80.9433 203.32C79.8873 203.32 78.9593 203.928 78.5433 204.792H78.5113C78.5113 204.472 78.4793 203.912 78.4473 203.512H77.4073C77.4553 204.024 77.4713 204.76 77.4713 205.16ZM87.7694 206.408C85.0334 206.408 82.4894 206.616 82.4894 208.92C82.4894 210.584 83.9454 211.192 85.0814 211.192C86.2814 211.192 87.1134 210.776 87.8014 209.784H87.8334C87.8334 210.184 87.8814 210.632 87.9454 211H88.9214C88.8414 210.584 88.7934 209.896 88.7934 209.32V206.04C88.7934 204.216 87.4974 203.32 85.8814 203.32C84.6014 203.32 83.5454 203.784 82.9374 204.392L83.5454 205.112C84.0734 204.584 84.8894 204.232 85.7694 204.232C87.0654 204.232 87.7694 204.872 87.7694 206.168V206.408ZM87.7694 207.256V207.816C87.7694 209.144 86.9054 210.296 85.3694 210.296C84.5214 210.296 83.6094 209.944 83.6094 208.872C83.6094 207.448 85.6734 207.256 87.4494 207.256H87.7694ZM94.816 203.512H92.704V201.4H91.616V203.512H90.064V204.424H91.616V209.096C91.616 210.744 92.736 211.096 93.536 211.096C94.032 211.096 94.432 211.016 94.816 210.872L94.768 209.928C94.48 210.072 94.128 210.168 93.824 210.168C93.168 210.168 92.704 209.912 92.704 208.792V204.424H94.816V203.512ZM97.1261 206.68C97.2221 205.4 98.2941 204.232 99.7501 204.232C101.302 204.232 102.166 205.272 102.23 206.68H97.1261ZM103.334 207.032C103.334 204.984 102.102 203.32 99.7501 203.32C97.6221 203.32 95.9741 205 95.9741 207.256C95.9741 209.512 97.6221 211.192 99.8461 211.192C101.078 211.192 102.182 210.728 103.062 209.608L102.246 208.968C101.83 209.64 100.966 210.264 99.8461 210.264C98.3101 210.264 97.1421 209.048 97.1101 207.544H103.318C103.334 207.352 103.334 207.176 103.334 207.032ZM114.49 204.664C114.01 203.816 112.906 203.32 111.866 203.32C110.506 203.32 109.194 203.976 109.194 205.496C109.194 206.92 110.458 207.304 111.338 207.512C112.762 207.848 113.546 208.168 113.546 208.952C113.546 209.928 112.714 210.264 111.786 210.264C110.906 210.264 110.09 209.752 109.706 209.096L108.842 209.736C109.53 210.744 110.666 211.192 111.802 211.192C113.178 211.192 114.618 210.584 114.618 208.872C114.618 207.704 113.786 207.048 112.026 206.68C110.794 206.424 110.234 206.104 110.234 205.4C110.234 204.568 111.034 204.232 111.818 204.232C112.65 204.232 113.338 204.664 113.658 205.288L114.49 204.664ZM124.224 207.256C124.224 205 122.56 203.32 120.224 203.32C117.904 203.32 116.24 205 116.24 207.256C116.24 209.512 117.904 211.192 120.224 211.192C122.56 211.192 124.224 209.512 124.224 207.256ZM123.072 207.256C123.072 208.936 121.968 210.264 120.224 210.264C118.496 210.264 117.392 208.936 117.392 207.256C117.392 205.576 118.496 204.232 120.224 204.232C121.968 204.232 123.072 205.576 123.072 207.256ZM127.637 204.792H127.605C127.605 204.472 127.573 203.912 127.541 203.512H126.501C126.549 204.024 126.565 204.76 126.565 205.16V211H127.653V207.16C127.653 205.16 128.789 204.232 129.829 204.232C131.285 204.232 131.637 205.176 131.637 206.632V211H132.725V207.016C132.725 205.624 133.285 204.232 134.853 204.232C136.261 204.232 136.789 205.288 136.789 206.856V211H137.877V206.408C137.877 204.552 136.933 203.32 135.029 203.32C133.829 203.32 132.917 203.88 132.405 204.904C131.909 203.624 130.917 203.32 130.101 203.32C129.029 203.32 128.069 203.928 127.637 204.792ZM141.298 206.68C141.394 205.4 142.466 204.232 143.922 204.232C145.474 204.232 146.338 205.272 146.402 206.68H141.298ZM147.506 207.032C147.506 204.984 146.274 203.32 143.922 203.32C141.794 203.32 140.146 205 140.146 207.256C140.146 209.512 141.794 211.192 144.018 211.192C145.25 211.192 146.354 210.728 147.234 209.608L146.418 208.968C146.002 209.64 145.138 210.264 144.018 210.264C142.482 210.264 141.314 209.048 141.282 207.544H147.49C147.506 207.352 147.506 207.176 147.506 207.032ZM157.286 207.256C157.286 205 155.622 203.32 153.286 203.32C150.966 203.32 149.302 205 149.302 207.256C149.302 209.512 150.966 211.192 153.286 211.192C155.622 211.192 157.286 209.512 157.286 207.256ZM156.134 207.256C156.134 208.936 155.03 210.264 153.286 210.264C151.558 210.264 150.454 208.936 150.454 207.256C150.454 205.576 151.558 204.232 153.286 204.232C155.03 204.232 156.134 205.576 156.134 207.256ZM159.564 203.512C159.612 204.024 159.628 204.76 159.628 205.16V211H160.716V207.16C160.716 205.16 161.836 204.232 162.988 204.232C164.556 204.232 165.02 205.288 165.02 206.856V211H166.108V206.408C166.108 204.552 165.164 203.32 163.26 203.32C162.204 203.32 161.116 203.928 160.7 204.792H160.668C160.668 204.472 160.636 203.912 160.604 203.512H159.564ZM169.532 206.68C169.628 205.4 170.7 204.232 172.156 204.232C173.708 204.232 174.572 205.272 174.636 206.68H169.532ZM175.74 207.032C175.74 204.984 174.508 203.32 172.156 203.32C170.028 203.32 168.38 205 168.38 207.256C168.38 209.512 170.028 211.192 172.252 211.192C173.484 211.192 174.588 210.728 175.468 209.608L174.652 208.968C174.236 209.64 173.372 210.264 172.252 210.264C170.716 210.264 169.548 209.048 169.516 207.544H175.724C175.74 207.352 175.74 207.176 175.74 207.032ZM189.521 207.256C189.521 205 187.857 203.32 185.521 203.32C183.201 203.32 181.537 205 181.537 207.256C181.537 209.512 183.201 211.192 185.521 211.192C187.857 211.192 189.521 209.512 189.521 207.256ZM188.369 207.256C188.369 208.936 187.265 210.264 185.521 210.264C183.793 210.264 182.689 208.936 182.689 207.256C182.689 205.576 183.793 204.232 185.521 204.232C187.265 204.232 188.369 205.576 188.369 207.256ZM191.798 203.512C191.846 204.024 191.862 204.76 191.862 205.16V211H192.95V207.16C192.95 205.16 194.07 204.232 195.222 204.232C196.79 204.232 197.254 205.288 197.254 206.856V211H198.342V206.408C198.342 204.552 197.398 203.32 195.494 203.32C194.438 203.32 193.35 203.928 192.934 204.792H192.902C192.902 204.472 192.87 203.912 192.838 203.512H191.798ZM208.535 203.512H206.423V201.4H205.335V203.512H203.783V204.424H205.335V209.096C205.335 210.744 206.455 211.096 207.255 211.096C207.751 211.096 208.151 211.016 208.535 210.872L208.487 209.928C208.199 210.072 207.847 210.168 207.543 210.168C206.887 210.168 206.423 209.912 206.423 208.792V204.424H208.535V203.512ZM211.357 204.744V198.904H210.269V211H211.357V207.16C211.357 205.16 212.477 204.232 213.629 204.232C215.197 204.232 215.661 205.288 215.661 206.856V211H216.749V206.408C216.749 204.552 215.805 203.32 213.901 203.32C212.845 203.32 211.789 203.88 211.389 204.744H211.357ZM220.173 206.68C220.269 205.4 221.341 204.232 222.797 204.232C224.349 204.232 225.213 205.272 225.277 206.68H220.173ZM226.381 207.032C226.381 204.984 225.149 203.32 222.797 203.32C220.669 203.32 219.021 205 219.021 207.256C219.021 209.512 220.669 211.192 222.893 211.192C224.125 211.192 225.229 210.728 226.109 209.608L225.293 208.968C224.877 209.64 224.013 210.264 222.893 210.264C221.357 210.264 220.189 209.048 220.157 207.544H226.365C226.381 207.352 226.381 207.176 226.381 207.032ZM228.721 205.16V211H229.809V207.16C229.809 205.16 230.849 204.328 232.001 204.328C232.289 204.328 232.641 204.376 232.769 204.424L232.913 203.4C232.689 203.336 232.465 203.32 232.193 203.32C231.137 203.32 230.209 203.928 229.793 204.792H229.761C229.761 204.472 229.729 203.912 229.697 203.512H228.657C228.705 204.024 228.721 204.76 228.721 205.16ZM234.814 206.68C234.91 205.4 235.982 204.232 237.438 204.232C238.99 204.232 239.854 205.272 239.918 206.68H234.814ZM241.022 207.032C241.022 204.984 239.79 203.32 237.438 203.32C235.31 203.32 233.662 205 233.662 207.256C233.662 209.512 235.31 211.192 237.534 211.192C238.766 211.192 239.87 210.728 240.75 209.608L239.934 208.968C239.518 209.64 238.654 210.264 237.534 210.264C235.998 210.264 234.83 209.048 234.798 207.544H241.006C241.022 207.352 241.022 207.176 241.022 207.032ZM248.45 209.736H248.498C249.122 210.664 250.242 211.192 251.314 211.192C253.65 211.192 255.186 209.464 255.186 207.256C255.186 205.048 253.65 203.32 251.314 203.32C250.242 203.32 249.122 203.832 248.498 204.808H248.45V203.512H247.362V214.84H248.45V209.736ZM254.034 207.256C254.034 208.92 253.01 210.264 251.202 210.264C249.522 210.264 248.322 208.968 248.322 207.256C248.322 205.544 249.522 204.232 251.202 204.232C253.01 204.232 254.034 205.592 254.034 207.256ZM257.518 205.16V211H258.606V207.16C258.606 205.16 259.646 204.328 260.798 204.328C261.086 204.328 261.438 204.376 261.566 204.424L261.71 203.4C261.486 203.336 261.262 203.32 260.99 203.32C259.934 203.32 259.006 203.928 258.59 204.792H258.558C258.558 204.472 258.526 203.912 258.494 203.512H257.454C257.502 204.024 257.518 204.76 257.518 205.16ZM270.443 207.256C270.443 205 268.779 203.32 266.443 203.32C264.123 203.32 262.459 205 262.459 207.256C262.459 209.512 264.123 211.192 266.443 211.192C268.779 211.192 270.443 209.512 270.443 207.256ZM269.291 207.256C269.291 208.936 268.187 210.264 266.443 210.264C264.715 210.264 263.611 208.936 263.611 207.256C263.611 205.576 264.715 204.232 266.443 204.232C268.187 204.232 269.291 205.576 269.291 207.256ZM278.576 203.512H277.488V211H278.576V203.512ZM278.816 200.632C278.816 200.184 278.432 199.864 278.048 199.864C277.664 199.864 277.28 200.184 277.28 200.632C277.28 201.08 277.664 201.4 278.048 201.4C278.432 201.4 278.816 201.08 278.816 200.632ZM275.952 203.512H274.192V201.592C274.192 200.504 274.432 199.672 275.6 199.672C275.888 199.672 276.128 199.72 276.352 199.784L276.544 198.824C276.272 198.744 275.92 198.712 275.648 198.712C273.936 198.712 273.104 199.768 273.104 201.464V203.512H271.536V204.424H273.104V211H274.192V204.424H275.952V203.512ZM282.607 198.904H281.519V211H282.607V198.904ZM286.126 206.68C286.222 205.4 287.294 204.232 288.75 204.232C290.302 204.232 291.166 205.272 291.23 206.68H286.126ZM292.334 207.032C292.334 204.984 291.102 203.32 288.75 203.32C286.622 203.32 284.974 205 284.974 207.256C284.974 209.512 286.622 211.192 288.846 211.192C290.078 211.192 291.182 210.728 292.062 209.608L291.246 208.968C290.83 209.64 289.966 210.264 288.846 210.264C287.31 210.264 286.142 209.048 286.11 207.544H292.318C292.334 207.352 292.334 207.176 292.334 207.032ZM296.162 209.48H295.026L293.954 213.24H294.866L296.162 209.48ZM69.6283 225.512H68.4123L71.6123 232.984L71.0043 234.552C70.6843 235.4 70.3003 235.88 69.5643 235.88C69.2763 235.88 69.0043 235.832 68.7643 235.752L68.6523 236.744C68.9723 236.808 69.3083 236.84 69.6283 236.84C70.9243 236.84 71.5323 236.088 71.9803 234.936L75.7083 225.512H74.5243L72.2043 231.832H72.1723L69.6283 225.512ZM84.8488 229.256C84.8488 227 83.1848 225.32 80.8488 225.32C78.5288 225.32 76.8648 227 76.8648 229.256C76.8648 231.512 78.5288 233.192 80.8488 233.192C83.1848 233.192 84.8488 231.512 84.8488 229.256ZM83.6968 229.256C83.6968 230.936 82.5928 232.264 80.8488 232.264C79.1208 232.264 78.0168 230.936 78.0168 229.256C78.0168 227.576 79.1208 226.232 80.8488 226.232C82.5928 226.232 83.6968 227.576 83.6968 229.256ZM93.67 233C93.622 232.488 93.606 231.752 93.606 231.352V225.512H92.518V229.352C92.518 231.352 91.398 232.28 90.246 232.28C88.678 232.28 88.214 231.224 88.214 229.656V225.512H87.126V230.104C87.126 231.96 88.07 233.192 89.974 233.192C91.03 233.192 92.118 232.584 92.534 231.72H92.566C92.566 232.04 92.598 232.6 92.63 233H93.67ZM97.9269 221.672H96.7909L95.7189 225.432H96.6309L97.9269 221.672ZM101.154 220.904H100.066V233H101.154V220.904ZM105.185 220.904H104.097V233H105.185V220.904ZM116.912 226.664C116.432 225.816 115.328 225.32 114.288 225.32C112.928 225.32 111.616 225.976 111.616 227.496C111.616 228.92 112.88 229.304 113.76 229.512C115.184 229.848 115.968 230.168 115.968 230.952C115.968 231.928 115.136 232.264 114.208 232.264C113.328 232.264 112.512 231.752 112.128 231.096L111.264 231.736C111.952 232.744 113.088 233.192 114.224 233.192C115.6 233.192 117.04 232.584 117.04 230.872C117.04 229.704 116.208 229.048 114.448 228.68C113.216 228.424 112.656 228.104 112.656 227.4C112.656 226.568 113.456 226.232 114.24 226.232C115.072 226.232 115.76 226.664 116.08 227.288L116.912 226.664ZM119.814 228.68C119.91 227.4 120.982 226.232 122.438 226.232C123.99 226.232 124.854 227.272 124.918 228.68H119.814ZM126.022 229.032C126.022 226.984 124.79 225.32 122.438 225.32C120.31 225.32 118.662 227 118.662 229.256C118.662 231.512 120.31 233.192 122.534 233.192C123.766 233.192 124.87 232.728 125.75 231.608L124.934 230.968C124.518 231.64 123.654 232.264 122.534 232.264C120.998 232.264 119.83 231.048 119.798 229.544H126.006C126.022 229.352 126.022 229.176 126.022 229.032ZM128.97 228.68C129.066 227.4 130.138 226.232 131.594 226.232C133.146 226.232 134.01 227.272 134.074 228.68H128.97ZM135.178 229.032C135.178 226.984 133.946 225.32 131.594 225.32C129.466 225.32 127.818 227 127.818 229.256C127.818 231.512 129.466 233.192 131.69 233.192C132.922 233.192 134.026 232.728 134.906 231.608L134.09 230.968C133.674 231.64 132.81 232.264 131.69 232.264C130.154 232.264 128.986 231.048 128.954 229.544H135.162C135.178 229.352 135.178 229.176 135.178 229.032ZM142.622 225.512H141.534V233H142.622V225.512ZM142.846 222.632C142.846 222.184 142.462 221.864 142.078 221.864C141.694 221.864 141.31 222.184 141.31 222.632C141.31 223.08 141.694 223.4 142.078 223.4C142.462 223.4 142.846 223.08 142.846 222.632ZM148.894 225.512H146.782V223.4H145.694V225.512H144.142V226.424H145.694V231.096C145.694 232.744 146.814 233.096 147.614 233.096C148.11 233.096 148.51 233.016 148.894 232.872L148.846 231.928C148.558 232.072 148.206 232.168 147.902 232.168C147.246 232.168 146.782 231.912 146.782 230.792V226.424H148.894V225.512ZM155.716 220.904H154.628V233H155.716V220.904ZM159.732 225.512H158.644V233H159.732V225.512ZM159.956 222.632C159.956 222.184 159.572 221.864 159.188 221.864C158.804 221.864 158.42 222.184 158.42 222.632C158.42 223.08 158.804 223.4 159.188 223.4C159.572 223.4 159.956 223.08 159.956 222.632ZM167.444 226.664C166.964 225.816 165.86 225.32 164.82 225.32C163.46 225.32 162.148 225.976 162.148 227.496C162.148 228.92 163.412 229.304 164.292 229.512C165.716 229.848 166.5 230.168 166.5 230.952C166.5 231.928 165.668 232.264 164.74 232.264C163.86 232.264 163.044 231.752 162.66 231.096L161.796 231.736C162.484 232.744 163.62 233.192 164.756 233.192C166.132 233.192 167.572 232.584 167.572 230.872C167.572 229.704 166.74 229.048 164.98 228.68C163.748 228.424 163.188 228.104 163.188 227.4C163.188 226.568 163.988 226.232 164.772 226.232C165.604 226.232 166.292 226.664 166.612 227.288L167.444 226.664ZM173.113 225.512H171.001V223.4H169.913V225.512H168.361V226.424H169.913V231.096C169.913 232.744 171.033 233.096 171.833 233.096C172.329 233.096 172.729 233.016 173.113 232.872L173.065 231.928C172.777 232.072 172.425 232.168 172.121 232.168C171.465 232.168 171.001 231.912 171.001 230.792V226.424H173.113V225.512ZM175.423 228.68C175.519 227.4 176.591 226.232 178.047 226.232C179.599 226.232 180.463 227.272 180.527 228.68H175.423ZM181.631 229.032C181.631 226.984 180.399 225.32 178.047 225.32C175.919 225.32 174.271 227 174.271 229.256C174.271 231.512 175.919 233.192 178.143 233.192C179.375 233.192 180.479 232.728 181.359 231.608L180.543 230.968C180.127 231.64 179.263 232.264 178.143 232.264C176.607 232.264 175.439 231.048 175.407 229.544H181.615C181.631 229.352 181.631 229.176 181.631 229.032ZM190.131 231.736H190.163V233H191.251V220.904H190.163V226.808H190.131C189.491 225.832 188.371 225.32 187.299 225.32C184.963 225.32 183.427 227.048 183.427 229.256C183.427 231.464 184.963 233.192 187.299 233.192C188.371 233.192 189.491 232.68 190.131 231.736ZM184.579 229.256C184.579 227.592 185.603 226.232 187.411 226.232C189.091 226.232 190.291 227.544 190.291 229.256C190.291 230.968 189.091 232.264 187.411 232.264C185.603 232.264 184.579 230.92 184.579 229.256ZM199.279 226.744V220.904H198.191V233H199.279V229.16C199.279 227.16 200.399 226.232 201.551 226.232C203.119 226.232 203.583 227.288 203.583 228.856V233H204.671V228.408C204.671 226.552 203.727 225.32 201.823 225.32C200.767 225.32 199.711 225.88 199.311 226.744H199.279ZM208.095 228.68C208.191 227.4 209.263 226.232 210.719 226.232C212.271 226.232 213.135 227.272 213.199 228.68H208.095ZM214.303 229.032C214.303 226.984 213.071 225.32 210.719 225.32C208.591 225.32 206.943 227 206.943 229.256C206.943 231.512 208.591 233.192 210.815 233.192C212.047 233.192 213.151 232.728 214.031 231.608L213.215 230.968C212.799 231.64 211.935 232.264 210.815 232.264C209.279 232.264 208.111 231.048 208.079 229.544H214.287C214.303 229.352 214.303 229.176 214.303 229.032ZM216.643 227.16V233H217.731V229.16C217.731 227.16 218.771 226.328 219.923 226.328C220.211 226.328 220.563 226.376 220.691 226.424L220.835 225.4C220.611 225.336 220.387 225.32 220.115 225.32C219.059 225.32 218.131 225.928 217.715 226.792H217.683C217.683 226.472 217.651 225.912 217.619 225.512H216.579C216.627 226.024 216.643 226.76 216.643 227.16ZM222.736 228.68C222.832 227.4 223.904 226.232 225.36 226.232C226.912 226.232 227.776 227.272 227.84 228.68H222.736ZM228.944 229.032C228.944 226.984 227.712 225.32 225.36 225.32C223.232 225.32 221.584 227 221.584 229.256C221.584 231.512 223.232 233.192 225.456 233.192C226.688 233.192 227.792 232.728 228.672 231.608L227.856 230.968C227.44 231.64 226.576 232.264 225.456 232.264C223.92 232.264 222.752 231.048 222.72 229.544H228.928C228.944 229.352 228.944 229.176 228.944 229.032Z" fill="#6D6D6D"/>
</svg>
