<svg width="14" height="14" viewBox="0 0 14 14" fill="none" xmlns="http://www.w3.org/2000/svg">
<path d="M0.878688 14.001H0.957438H0.878688ZM0.878688 14.001C0.76353 14.0016 0.649375 13.9795 0.542766 13.9358C0.436157 13.8921 0.339191 13.8277 0.25743 13.7463L0.878688 14.001ZM4.54404 13.0202L0.92777 13.351L0.878688 13.351L0.874914 13.351C0.845622 13.3511 0.816539 13.3455 0.789309 13.3343C0.762303 13.3233 0.737566 13.307 0.716552 13.2862C0.693211 13.2627 0.675125 13.2342 0.663725 13.2027C0.652519 13.1716 0.648082 13.1385 0.650757 13.1055L1.02653 9.44823L1.02675 9.44599C1.05185 9.19314 1.16269 8.95701 1.34016 8.77697C1.34046 8.77666 1.34076 8.77636 1.34106 8.77606L9.19273 0.896042C9.39601 0.731205 9.65099 0.644464 9.91204 0.651358C10.1781 0.658386 10.4329 0.762236 10.6289 0.943977L13.0184 3.34213L13.0239 3.3477L13.0296 3.35314C13.2272 3.54208 13.3426 3.80242 13.3497 4.07728C13.3567 4.34953 13.2568 4.61311 13.0726 4.81147L5.20648 12.706C5.20618 12.7063 5.20589 12.7066 5.2056 12.7069C5.02685 12.8843 4.79334 12.9947 4.54404 13.0202Z" fill="white" stroke="#FAFAFA" stroke-width="1.3"/>
</svg>
