<svg width="24" height="25" viewBox="0 0 24 25" fill="none" xmlns="http://www.w3.org/2000/svg">
<path d="M1.80469 17.6719H7.24315V24.47H1.80469V17.6719ZM16.7605 17.6719H22.1989V24.47H16.7605V17.6719Z" fill="#FFDC5D"/>
<path d="M22.1989 19.5239C22.1989 19.5239 20.1595 20.8835 16.7605 20.2037V16.8047H22.1989V19.5239ZM1.80469 19.5239C1.80469 19.5239 3.84411 20.8835 7.24315 20.2037V16.8047H1.80469V19.5239Z" fill="#F9CA55"/>
<path d="M2.47388 12.6446H7.91234V18.0831H2.47388V12.6446ZM16.0857 12.3047H21.5241V17.7432H16.0857V12.3047Z" fill="#EF9645"/>
<path d="M0.0194439 8.04845C0.0194439 8.04845 0.0214834 7.21568 0.853568 7.21772C1.68701 7.22044 1.68429 8.05321 1.68429 8.05321L1.67138 11.9172C1.80394 11.8561 1.94262 11.801 2.0881 11.7534L2.10509 6.3904C2.10509 6.3904 2.10781 5.55763 2.93922 5.56035C3.7713 5.56239 3.76927 6.39584 3.76927 6.39584L3.75499 11.44C3.89027 11.4278 4.02963 11.4183 4.16967 11.4115L4.18871 5.56375C4.18871 5.56375 4.19075 4.73099 5.02351 4.73439C5.85628 4.7371 5.85288 5.56987 5.85288 5.56987L5.83384 11.4162C5.9766 11.4244 6.11392 11.4387 6.25124 11.4516L6.26824 5.98659C6.26824 5.98659 6.27096 5.15383 7.10236 5.15723C7.93445 5.15927 7.93105 5.99135 7.93105 5.99135L7.91474 11.7704L7.9127 12.2333V12.6487C5.41508 12.6426 3.74343 14.7167 3.73595 16.7983C3.73595 17.2143 4.152 17.217 4.152 17.217C4.1588 14.7167 5.82908 13.06 8.32738 13.0675L9.55171 10.2204C9.55171 10.2204 9.82024 9.43254 10.6095 9.70242C11.3967 9.96891 11.1295 10.7582 11.1295 10.7582L10.5225 12.869C10.2818 13.7079 10.0568 14.5522 9.93852 15.4142C9.59998 17.8506 7.50413 19.7242 4.9766 19.7174C2.21998 19.7058 -0.00978789 17.4638 -0.000950383 14.7072C-0.000270575 14.5617 0.00856694 14.423 0.0221631 14.2925L0.000409236 14.2898L0.0194439 8.04845V8.04845ZM23.9786 8.04845C23.9786 8.04845 23.9766 7.21568 23.1445 7.21772C22.311 7.22044 22.3131 8.05321 22.3131 8.05321L22.326 11.9172C22.1941 11.8561 22.0547 11.801 21.9099 11.7534L21.8929 6.3904C21.8929 6.3904 21.8902 5.55763 21.0588 5.56035C20.2261 5.56239 20.2281 6.39584 20.2281 6.39584L20.2431 11.44C20.1085 11.4278 19.9691 11.4183 19.8284 11.4115L19.81 5.56375C19.81 5.56375 19.8073 4.73099 18.9745 4.73439C18.1418 4.7371 18.1452 5.56987 18.1452 5.56987L18.1642 11.4162C18.0214 11.4244 17.8841 11.4387 17.7468 11.4516L17.7298 5.98659C17.7298 5.98659 17.7264 5.15383 16.895 5.15723C16.0629 5.15927 16.0663 5.99135 16.0663 5.99135L16.0826 11.7704L16.0847 12.2333V12.6487C18.5823 12.6426 20.2539 14.7167 20.2621 16.7983C20.2621 17.2143 19.846 17.217 19.846 17.217C19.8386 14.7167 18.1683 13.06 15.6707 13.0675L14.4463 10.2204C14.4463 10.2204 14.1785 9.43254 13.3885 9.70242C12.602 9.96891 12.8685 10.7582 12.8685 10.7582L13.4756 12.869C13.7162 13.7079 13.9412 14.5522 14.0595 15.4142C14.3981 17.8506 16.4932 19.7242 19.0214 19.7174C21.7781 19.7058 24.0085 17.4638 23.999 14.7072C23.9983 14.5617 23.9895 14.423 23.9759 14.2925L23.9976 14.2898L23.9786 8.04845V8.04845Z" fill="#FFDC5D"/>
<path d="M15.7695 4.3902C15.6247 4.3902 15.4778 4.34397 15.3548 4.2488C15.057 4.01903 15.0026 3.59211 15.2324 3.29503L17.2576 0.67437C17.4853 0.377973 17.9136 0.320869 18.2106 0.552004C18.5084 0.781779 18.5628 1.2087 18.333 1.50577L16.3079 4.12644C16.1746 4.29979 15.9734 4.3902 15.7695 4.3902ZM8.27797 4.3902C8.07471 4.3902 7.87349 4.29911 7.73957 4.12576L5.71442 1.50577C5.48532 1.2087 5.54039 0.781779 5.83746 0.552004C6.13454 0.322909 6.56078 0.377293 6.79123 0.67437L8.81638 3.29503C9.04548 3.59211 8.99109 4.01903 8.69402 4.2488C8.56961 4.34465 8.42345 4.3902 8.27797 4.3902ZM12.0026 4.07885C11.6274 4.07885 11.3228 3.77429 11.3228 3.39904V0.679808C11.3228 0.304554 11.6274 0 12.0026 0C12.3786 0 12.6824 0.304554 12.6824 0.679808V3.39904C12.6824 3.77429 12.3786 4.07885 12.0026 4.07885Z" fill="#5DADEC"/>
</svg>
