<svg width="24" height="24" viewBox="0 0 24 24" fill="none" xmlns="http://www.w3.org/2000/svg">
<path d="M23.999 12C23.999 18.6273 18.6264 24 11.999 24C5.37236 24 -0.000976562 18.6273 -0.000976562 12C-0.000976562 5.37333 5.37236 0 11.999 0C18.6264 0 23.999 5.37333 23.999 12Z" fill="#FFCC4D"/>
<path d="M7.66569 13.6667C8.58616 13.6667 9.33236 12.622 9.33236 11.3333C9.33236 10.0447 8.58616 9 7.66569 9C6.74522 9 5.99902 10.0447 5.99902 11.3333C5.99902 12.622 6.74522 13.6667 7.66569 13.6667Z" fill="#664500"/>
<path d="M16.3324 13.6667C17.2529 13.6667 17.9991 12.622 17.9991 11.3333C17.9991 10.0447 17.2529 9 16.3324 9C15.412 9 14.6658 10.0447 14.6658 11.3333C14.6658 12.622 15.412 13.6667 16.3324 13.6667Z" fill="#664500"/>
<path d="M3.99824 9C3.85958 9 3.71891 8.95667 3.59891 8.86667C3.30424 8.646 3.24491 8.228 3.46558 7.93333C5.64024 5.03333 8.54291 5 8.66558 5C9.03358 5 9.33224 5.29867 9.33224 5.66667C9.33224 6.034 9.03558 6.332 8.66824 6.33333C8.56491 6.33467 6.28958 6.39067 4.53224 8.73333C4.40158 8.908 4.20091 9 3.99824 9ZM19.9996 9C19.7962 9 19.5969 8.908 19.4656 8.73333C17.7049 6.386 15.4249 6.334 15.3282 6.33333C14.9616 6.32933 14.6656 6.02933 14.6676 5.66333C14.6696 5.296 14.9656 5 15.3322 5C15.4549 5 18.3569 5.03333 20.5322 7.93333C20.7536 8.228 20.6936 8.646 20.3989 8.86667C20.2789 8.95667 20.1389 9 19.9996 9ZM15.6556 18.9193C15.6482 18.89 14.8922 16 11.9989 16C9.10558 16 8.34958 18.89 8.34224 18.9193C8.30691 19.0613 8.37158 19.2067 8.49691 19.282C8.62224 19.3567 8.78558 19.3393 8.89424 19.242C8.90024 19.2367 9.56958 18.6667 11.9989 18.6667C14.3922 18.6667 15.0769 19.22 15.1029 19.242C15.1662 19.302 15.2489 19.3333 15.3322 19.3333C15.3882 19.3333 15.4449 19.3193 15.4962 19.2907C15.6269 19.216 15.6922 19.0647 15.6556 18.9193Z" fill="#664500"/>
<path d="M10.6657 20.6667C10.6657 22.508 9.17369 24 7.33236 24C5.49102 24 3.99902 22.508 3.99902 20.6667C3.99902 18.8253 6.66569 14 7.33236 14C7.99902 14 10.6657 18.8253 10.6657 20.6667Z" fill="#5DADEC"/>
</svg>
