<svg width="24" height="24" viewBox="0 0 24 24" fill="none" xmlns="http://www.w3.org/2000/svg">
<path d="M23.999 12C23.999 18.6273 18.6264 24 11.999 24C5.37169 24 -0.000976562 18.6273 -0.000976562 12C-0.000976562 5.37267 5.37169 0 11.999 0C18.6264 0 23.999 5.37267 23.999 12Z" fill="#FFCC4D"/>
<path d="M11.9986 14.5657C10.0212 14.5657 8.70856 14.335 7.0859 14.0197C6.71456 13.949 5.9939 14.0197 5.9939 15.1117C5.9939 17.295 8.50256 20.0244 11.9986 20.0244C15.4946 20.0244 18.0032 17.295 18.0032 15.1117C18.0032 14.0197 17.2819 13.9484 16.9112 14.0197C15.2886 14.335 13.9766 14.5657 11.9986 14.5657Z" fill="#664500"/>
<path d="M11.1 2.18723C10.5273 0.566561 8.75068 -0.284106 7.12934 0.287227C6.14534 0.633894 5.44868 1.42789 5.17734 2.35656C4.38334 1.80389 3.34334 1.62323 2.36068 1.96989C0.740676 2.54189 -0.111323 4.31989 0.461343 5.94056C0.542677 6.16989 0.650677 6.38256 0.77601 6.57923C2.07668 8.96723 5.83468 10.6459 8.11001 10.6666C9.86801 9.22189 11.7407 5.55656 11.2553 2.88189C11.23 2.64989 11.18 2.41656 11.1 2.18723ZM12.9 2.18723C13.4727 0.566561 15.25 -0.284106 16.8707 0.287227C17.8547 0.633894 18.5513 1.42789 18.8233 2.35656C19.6173 1.80389 20.6573 1.62323 21.64 1.96989C23.26 2.54189 24.1113 4.31989 23.54 5.94056C23.458 6.16989 23.3507 6.38256 23.2247 6.57923C21.924 8.96723 18.166 10.6459 15.89 10.6666C14.132 9.22189 12.26 5.55656 12.7453 2.88189C12.77 2.64989 12.82 2.41656 12.9 2.18723Z" fill="#DD2E44"/>
</svg>
