<svg width="77" height="56" viewBox="0 0 77 56" fill="none" xmlns="http://www.w3.org/2000/svg">
<path d="M0 21.125C0 9.72969 9.22969 0.5 20.625 0.5H22C25.0422 0.5 27.5 2.95781 27.5 6C27.5 9.04219 25.0422 11.5 22 11.5H20.625C15.3141 11.5 11 15.8141 11 21.125V22.5H22C28.0672 22.5 33 27.4328 33 33.5V44.5C33 50.5672 28.0672 55.5 22 55.5H11C4.93281 55.5 0 50.5672 0 44.5V21.125ZM44 21.125C44 9.72969 53.2297 0.5 64.625 0.5H66C69.0422 0.5 71.5 2.95781 71.5 6C71.5 9.04219 69.0422 11.5 66 11.5H64.625C59.3141 11.5 55 15.8141 55 21.125V22.5H66C72.0672 22.5 77 27.4328 77 33.5V44.5C77 50.5672 72.0672 55.5 66 55.5H55C48.9328 55.5 44 50.5672 44 44.5V21.125Z" fill="white"/>
</svg>
