<svg width="24" height="24" viewBox="0 0 24 24" fill="none" xmlns="http://www.w3.org/2000/svg">
<path d="M23.999 12C23.999 18.6273 18.6264 24 11.999 24C5.37169 24 -0.000976562 18.6273 -0.000976562 12C-0.000976562 5.37267 5.37169 0 11.999 0C18.6264 0 23.999 5.37267 23.999 12Z" fill="#FFCC4D"/>
<path d="M11.9989 20.0026C13.4717 20.0026 14.6656 18.5102 14.6656 16.6693C14.6656 14.8283 13.4717 13.3359 11.9989 13.3359C10.5262 13.3359 9.33228 14.8283 9.33228 16.6693C9.33228 18.5102 10.5262 20.0026 11.9989 20.0026Z" fill="#664500"/>
<path d="M7.99894 11.3307C8.91942 11.3307 9.66561 10.2861 9.66561 8.9974C9.66561 7.70873 8.91942 6.66406 7.99894 6.66406C7.07847 6.66406 6.33228 7.70873 6.33228 8.9974C6.33228 10.2861 7.07847 11.3307 7.99894 11.3307Z" fill="#664500"/>
<path d="M15.9989 11.3307C16.9194 11.3307 17.6656 10.2861 17.6656 8.9974C17.6656 7.70873 16.9194 6.66406 15.9989 6.66406C15.0785 6.66406 14.3323 7.70873 14.3323 8.9974C14.3323 10.2861 15.0785 11.3307 15.9989 11.3307Z" fill="#664500"/>
</svg>
